ISO-10303-21;
HEADER;
/* Generated by software containing ST-Developer
 * from STEP Tools, Inc. (www.steptools.com) 
 */
/* OPTION: using custom renumber hook */

FILE_DESCRIPTION(
/* description */ ('STEP AP242 Edition 2',
'CAx-IF Rec.Pracs.---Representation and Presentation of Product Manufa
cturing Information (PMI)---4.0---2014-10-13',
'CAx-IF Rec.Pracs.---3D Tessellated Geometry---0.4---2014-09-14','2;1',
'CAx-IF Rec.Pracs.---User Defined Attributes---1.5---2016-08-15'),
/* implementation_level */ '2;1');

FILE_NAME(
/* name */ 'Part Studio 1 - Part 1',
/* time_stamp */ '2026-01-21T11:43:17Z',
/* author */ (''),
/* organization */ (''),
/* preprocessor_version */ 'ST-DEVELOPER v20',
/* originating_system */ 'ONSHAPE BY PTC INC, 1.209',
/* authorisation */ '  ');

FILE_SCHEMA (('AP242_MANAGED_MODEL_BASED_3D_ENGINEERING_MIM_LF { 1 0 10303 442 3 1 4 }'));
ENDSEC;

DATA;
#10=SHAPE_REPRESENTATION_RELATIONSHIP('','',#361,#11);
#11=ADVANCED_BREP_SHAPE_REPRESENTATION('',(#359),#565);
#12=ORIENTED_EDGE('',*,*,#104,.F.);
#13=ORIENTED_EDGE('',*,*,#105,.T.);
#14=ORIENTED_EDGE('',*,*,#106,.T.);
#15=ORIENTED_EDGE('',*,*,#107,.F.);
#16=ORIENTED_EDGE('',*,*,#108,.F.);
#17=ORIENTED_EDGE('',*,*,#109,.T.);
#18=ORIENTED_EDGE('',*,*,#110,.F.);
#19=ORIENTED_EDGE('',*,*,#111,.F.);
#20=ORIENTED_EDGE('',*,*,#112,.F.);
#21=ORIENTED_EDGE('',*,*,#113,.F.);
#22=ORIENTED_EDGE('',*,*,#114,.T.);
#23=ORIENTED_EDGE('',*,*,#115,.T.);
#24=ORIENTED_EDGE('',*,*,#113,.T.);
#25=ORIENTED_EDGE('',*,*,#116,.T.);
#26=ORIENTED_EDGE('',*,*,#117,.F.);
#27=ORIENTED_EDGE('',*,*,#118,.F.);
#28=ORIENTED_EDGE('',*,*,#117,.T.);
#29=ORIENTED_EDGE('',*,*,#119,.T.);
#30=ORIENTED_EDGE('',*,*,#120,.F.);
#31=ORIENTED_EDGE('',*,*,#121,.F.);
#32=ORIENTED_EDGE('',*,*,#122,.T.);
#33=ORIENTED_EDGE('',*,*,#123,.F.);
#34=ORIENTED_EDGE('',*,*,#124,.F.);
#35=ORIENTED_EDGE('',*,*,#125,.T.);
#36=ORIENTED_EDGE('',*,*,#126,.T.);
#37=ORIENTED_EDGE('',*,*,#127,.T.);
#38=ORIENTED_EDGE('',*,*,#128,.F.);
#39=ORIENTED_EDGE('',*,*,#123,.T.);
#40=ORIENTED_EDGE('',*,*,#129,.F.);
#41=ORIENTED_EDGE('',*,*,#130,.F.);
#42=ORIENTED_EDGE('',*,*,#131,.T.);
#43=ORIENTED_EDGE('',*,*,#110,.T.);
#44=ORIENTED_EDGE('',*,*,#132,.F.);
#45=ORIENTED_EDGE('',*,*,#125,.F.);
#46=ORIENTED_EDGE('',*,*,#133,.T.);
#47=ORIENTED_EDGE('',*,*,#130,.T.);
#48=ORIENTED_EDGE('',*,*,#134,.F.);
#49=ORIENTED_EDGE('',*,*,#115,.F.);
#50=ORIENTED_EDGE('',*,*,#135,.T.);
#51=ORIENTED_EDGE('',*,*,#120,.T.);
#52=ORIENTED_EDGE('',*,*,#124,.T.);
#53=ORIENTED_EDGE('',*,*,#128,.T.);
#54=ORIENTED_EDGE('',*,*,#136,.F.);
#55=ORIENTED_EDGE('',*,*,#137,.T.);
#56=ORIENTED_EDGE('',*,*,#138,.T.);
#57=ORIENTED_EDGE('',*,*,#111,.T.);
#58=ORIENTED_EDGE('',*,*,#131,.F.);
#59=ORIENTED_EDGE('',*,*,#133,.F.);
#60=ORIENTED_EDGE('',*,*,#114,.F.);
#61=ORIENTED_EDGE('',*,*,#118,.T.);
#62=ORIENTED_EDGE('',*,*,#121,.T.);
#63=ORIENTED_EDGE('',*,*,#135,.F.);
#64=ORIENTED_EDGE('',*,*,#122,.F.);
#65=ORIENTED_EDGE('',*,*,#132,.T.);
#66=ORIENTED_EDGE('',*,*,#129,.T.);
#67=ORIENTED_EDGE('',*,*,#109,.F.);
#68=ORIENTED_EDGE('',*,*,#106,.F.);
#69=ORIENTED_EDGE('',*,*,#126,.F.);
#70=ORIENTED_EDGE('',*,*,#119,.F.);
#71=ORIENTED_EDGE('',*,*,#116,.F.);
#72=ORIENTED_EDGE('',*,*,#112,.T.);
#73=ORIENTED_EDGE('',*,*,#134,.T.);
#74=ORIENTED_EDGE('',*,*,#105,.F.);
#75=ORIENTED_EDGE('',*,*,#139,.F.);
#76=ORIENTED_EDGE('',*,*,#140,.F.);
#77=ORIENTED_EDGE('',*,*,#141,.T.);
#78=ORIENTED_EDGE('',*,*,#142,.T.);
#79=ORIENTED_EDGE('',*,*,#136,.T.);
#80=ORIENTED_EDGE('',*,*,#127,.F.);
#81=ORIENTED_EDGE('',*,*,#143,.T.);
#82=ORIENTED_EDGE('',*,*,#107,.T.);
#83=ORIENTED_EDGE('',*,*,#108,.T.);
#84=ORIENTED_EDGE('',*,*,#138,.F.);
#85=ORIENTED_EDGE('',*,*,#144,.F.);
#86=ORIENTED_EDGE('',*,*,#145,.F.);
#87=ORIENTED_EDGE('',*,*,#146,.T.);
#88=ORIENTED_EDGE('',*,*,#144,.T.);
#89=ORIENTED_EDGE('',*,*,#137,.F.);
#90=ORIENTED_EDGE('',*,*,#142,.F.);
#91=ORIENTED_EDGE('',*,*,#147,.T.);
#92=ORIENTED_EDGE('',*,*,#148,.F.);
#93=ORIENTED_EDGE('',*,*,#146,.F.);
#94=ORIENTED_EDGE('',*,*,#149,.T.);
#95=ORIENTED_EDGE('',*,*,#140,.T.);
#96=ORIENTED_EDGE('',*,*,#143,.F.);
#97=ORIENTED_EDGE('',*,*,#148,.T.);
#98=ORIENTED_EDGE('',*,*,#139,.T.);
#99=ORIENTED_EDGE('',*,*,#104,.T.);
#100=ORIENTED_EDGE('',*,*,#145,.T.);
#101=ORIENTED_EDGE('',*,*,#147,.F.);
#102=ORIENTED_EDGE('',*,*,#141,.F.);
#103=ORIENTED_EDGE('',*,*,#149,.F.);
#104=EDGE_CURVE('',#150,#151,#180,.T.);
#105=EDGE_CURVE('',#150,#152,#181,.T.);
#106=EDGE_CURVE('',#152,#153,#182,.T.);
#107=EDGE_CURVE('',#151,#153,#183,.T.);
#108=EDGE_CURVE('',#153,#154,#184,.T.);
#109=EDGE_CURVE('',#153,#155,#185,.T.);
#110=EDGE_CURVE('',#156,#155,#186,.T.);
#111=EDGE_CURVE('',#154,#156,#187,.T.);
#112=EDGE_CURVE('',#157,#158,#188,.T.);
#113=EDGE_CURVE('',#159,#157,#189,.T.);
#114=EDGE_CURVE('',#159,#160,#190,.T.);
#115=EDGE_CURVE('',#160,#158,#191,.T.);
#116=EDGE_CURVE('',#157,#161,#192,.T.);
#117=EDGE_CURVE('',#162,#161,#193,.T.);
#118=EDGE_CURVE('',#159,#162,#194,.T.);
#119=EDGE_CURVE('',#161,#163,#195,.T.);
#120=EDGE_CURVE('',#164,#163,#196,.T.);
#121=EDGE_CURVE('',#162,#164,#197,.T.);
#122=EDGE_CURVE('',#165,#166,#198,.T.);
#123=EDGE_CURVE('',#167,#166,#199,.T.);
#124=EDGE_CURVE('',#168,#167,#200,.T.);
#125=EDGE_CURVE('',#168,#165,#201,.T.);
#126=EDGE_CURVE('',#166,#152,#202,.T.);
#127=EDGE_CURVE('',#152,#169,#203,.T.);
#128=EDGE_CURVE('',#167,#169,#204,.T.);
#129=EDGE_CURVE('',#170,#155,#205,.T.);
#130=EDGE_CURVE('',#171,#170,#206,.T.);
#131=EDGE_CURVE('',#171,#156,#207,.T.);
#132=EDGE_CURVE('',#165,#170,#208,.T.);
#133=EDGE_CURVE('',#168,#171,#209,.T.);
#134=EDGE_CURVE('',#158,#163,#210,.T.);
#135=EDGE_CURVE('',#160,#164,#211,.T.);
#136=EDGE_CURVE('',#172,#169,#212,.T.);
#137=EDGE_CURVE('',#172,#173,#213,.T.);
#138=EDGE_CURVE('',#173,#154,#214,.T.);
#139=EDGE_CURVE('',#174,#150,#215,.T.);
#140=EDGE_CURVE('',#175,#174,#216,.T.);
#141=EDGE_CURVE('',#175,#176,#217,.T.);
#142=EDGE_CURVE('',#176,#172,#218,.T.);
#143=EDGE_CURVE('',#177,#151,#219,.T.);
#144=EDGE_CURVE('',#178,#173,#220,.T.);
#145=EDGE_CURVE('',#179,#178,#221,.T.);
#146=EDGE_CURVE('',#179,#177,#222,.T.);
#147=EDGE_CURVE('',#176,#178,#223,.T.);
#148=EDGE_CURVE('',#177,#174,#224,.T.);
#149=EDGE_CURVE('',#179,#175,#225,.T.);
#150=VERTEX_POINT('',#471);
#151=VERTEX_POINT('',#472);
#152=VERTEX_POINT('',#474);
#153=VERTEX_POINT('',#476);
#154=VERTEX_POINT('',#480);
#155=VERTEX_POINT('',#482);
#156=VERTEX_POINT('',#484);
#157=VERTEX_POINT('',#488);
#158=VERTEX_POINT('',#489);
#159=VERTEX_POINT('',#491);
#160=VERTEX_POINT('',#493);
#161=VERTEX_POINT('',#497);
#162=VERTEX_POINT('',#499);
#163=VERTEX_POINT('',#503);
#164=VERTEX_POINT('',#505);
#165=VERTEX_POINT('',#509);
#166=VERTEX_POINT('',#510);
#167=VERTEX_POINT('',#512);
#168=VERTEX_POINT('',#514);
#169=VERTEX_POINT('',#519);
#170=VERTEX_POINT('',#523);
#171=VERTEX_POINT('',#525);
#172=VERTEX_POINT('',#535);
#173=VERTEX_POINT('',#537);
#174=VERTEX_POINT('',#543);
#175=VERTEX_POINT('',#545);
#176=VERTEX_POINT('',#547);
#177=VERTEX_POINT('',#551);
#178=VERTEX_POINT('',#553);
#179=VERTEX_POINT('',#555);
#180=LINE('',#470,#226);
#181=LINE('',#473,#227);
#182=LINE('',#475,#228);
#183=LINE('',#477,#229);
#184=LINE('',#479,#230);
#185=LINE('',#481,#231);
#186=LINE('',#483,#232);
#187=LINE('',#485,#233);
#188=LINE('',#487,#234);
#189=LINE('',#490,#235);
#190=LINE('',#492,#236);
#191=LINE('',#494,#237);
#192=LINE('',#496,#238);
#193=LINE('',#498,#239);
#194=LINE('',#500,#240);
#195=LINE('',#502,#241);
#196=LINE('',#504,#242);
#197=LINE('',#506,#243);
#198=LINE('',#508,#244);
#199=LINE('',#511,#245);
#200=LINE('',#513,#246);
#201=LINE('',#515,#247);
#202=LINE('',#517,#248);
#203=LINE('',#518,#249);
#204=LINE('',#520,#250);
#205=LINE('',#522,#251);
#206=LINE('',#524,#252);
#207=LINE('',#526,#253);
#208=LINE('',#528,#254);
#209=LINE('',#529,#255);
#210=LINE('',#531,#256);
#211=LINE('',#532,#257);
#212=LINE('',#534,#258);
#213=LINE('',#536,#259);
#214=LINE('',#538,#260);
#215=LINE('',#542,#261);
#216=LINE('',#544,#262);
#217=LINE('',#546,#263);
#218=LINE('',#548,#264);
#219=LINE('',#550,#265);
#220=LINE('',#552,#266);
#221=LINE('',#554,#267);
#222=LINE('',#556,#268);
#223=LINE('',#558,#269);
#224=LINE('',#560,#270);
#225=LINE('',#561,#271);
#226=VECTOR('',#386,1.);
#227=VECTOR('',#387,1.);
#228=VECTOR('',#388,1.);
#229=VECTOR('',#389,1.);
#230=VECTOR('',#392,1.);
#231=VECTOR('',#393,1.);
#232=VECTOR('',#394,1.);
#233=VECTOR('',#395,1.);
#234=VECTOR('',#398,1.);
#235=VECTOR('',#399,1.);
#236=VECTOR('',#400,1.);
#237=VECTOR('',#401,1.);
#238=VECTOR('',#404,1.);
#239=VECTOR('',#405,1.);
#240=VECTOR('',#406,1.);
#241=VECTOR('',#409,1.);
#242=VECTOR('',#410,1.);
#243=VECTOR('',#411,1.);
#244=VECTOR('',#414,1.);
#245=VECTOR('',#415,1.);
#246=VECTOR('',#416,1.);
#247=VECTOR('',#417,1.);
#248=VECTOR('',#420,1.);
#249=VECTOR('',#421,1.);
#250=VECTOR('',#422,1.);
#251=VECTOR('',#425,1.);
#252=VECTOR('',#426,1.);
#253=VECTOR('',#427,1.);
#254=VECTOR('',#430,1.);
#255=VECTOR('',#431,1.);
#256=VECTOR('',#434,1.);
#257=VECTOR('',#435,1.);
#258=VECTOR('',#438,1.);
#259=VECTOR('',#439,1.);
#260=VECTOR('',#440,1.);
#261=VECTOR('',#447,1.);
#262=VECTOR('',#448,1.);
#263=VECTOR('',#449,1.);
#264=VECTOR('',#450,1.);
#265=VECTOR('',#453,1.);
#266=VECTOR('',#454,1.);
#267=VECTOR('',#455,1.);
#268=VECTOR('',#456,1.);
#269=VECTOR('',#459,1.);
#270=VECTOR('',#462,1.);
#271=VECTOR('',#463,1.);
#272=EDGE_LOOP('',(#12,#13,#14,#15));
#273=EDGE_LOOP('',(#16,#17,#18,#19));
#274=EDGE_LOOP('',(#20,#21,#22,#23));
#275=EDGE_LOOP('',(#24,#25,#26,#27));
#276=EDGE_LOOP('',(#28,#29,#30,#31));
#277=EDGE_LOOP('',(#32,#33,#34,#35));
#278=EDGE_LOOP('',(#36,#37,#38,#39));
#279=EDGE_LOOP('',(#40,#41,#42,#43));
#280=EDGE_LOOP('',(#44,#45,#46,#47));
#281=EDGE_LOOP('',(#48,#49,#50,#51));
#282=EDGE_LOOP('',(#52,#53,#54,#55,#56,#57,#58,#59));
#283=EDGE_LOOP('',(#60,#61,#62,#63));
#284=EDGE_LOOP('',(#64,#65,#66,#67,#68,#69));
#285=EDGE_LOOP('',(#70,#71,#72,#73));
#286=EDGE_LOOP('',(#74,#75,#76,#77,#78,#79,#80));
#287=EDGE_LOOP('',(#81,#82,#83,#84,#85,#86,#87));
#288=EDGE_LOOP('',(#88,#89,#90,#91));
#289=EDGE_LOOP('',(#92,#93,#94,#95));
#290=EDGE_LOOP('',(#96,#97,#98,#99));
#291=EDGE_LOOP('',(#100,#101,#102,#103));
#292=FACE_BOUND('',#272,.T.);
#293=FACE_BOUND('',#273,.T.);
#294=FACE_BOUND('',#274,.T.);
#295=FACE_BOUND('',#275,.T.);
#296=FACE_BOUND('',#276,.T.);
#297=FACE_BOUND('',#277,.T.);
#298=FACE_BOUND('',#278,.T.);
#299=FACE_BOUND('',#279,.T.);
#300=FACE_BOUND('',#280,.T.);
#301=FACE_BOUND('',#281,.T.);
#302=FACE_BOUND('',#282,.T.);
#303=FACE_BOUND('',#283,.T.);
#304=FACE_BOUND('',#284,.T.);
#305=FACE_BOUND('',#285,.T.);
#306=FACE_BOUND('',#286,.T.);
#307=FACE_BOUND('',#287,.T.);
#308=FACE_BOUND('',#288,.T.);
#309=FACE_BOUND('',#289,.T.);
#310=FACE_BOUND('',#290,.T.);
#311=FACE_BOUND('',#291,.T.);
#312=PLANE('',#363);
#313=PLANE('',#364);
#314=PLANE('',#365);
#315=PLANE('',#366);
#316=PLANE('',#367);
#317=PLANE('',#368);
#318=PLANE('',#369);
#319=PLANE('',#370);
#320=PLANE('',#371);
#321=PLANE('',#372);
#322=PLANE('',#373);
#323=PLANE('',#374);
#324=PLANE('',#375);
#325=PLANE('',#376);
#326=PLANE('',#377);
#327=PLANE('',#378);
#328=PLANE('',#379);
#329=PLANE('',#380);
#330=PLANE('',#381);
#331=ADVANCED_FACE('',(#292),#312,.F.);
#332=ADVANCED_FACE('',(#293),#313,.F.);
#333=ADVANCED_FACE('',(#294),#314,.T.);
#334=ADVANCED_FACE('',(#295),#315,.F.);
#335=ADVANCED_FACE('',(#296),#316,.F.);
#336=ADVANCED_FACE('',(#297),#317,.F.);
#337=ADVANCED_FACE('',(#298),#318,.F.);
#338=ADVANCED_FACE('',(#299),#319,.T.);
#339=ADVANCED_FACE('',(#300),#320,.T.);
#340=ADVANCED_FACE('',(#301),#321,.T.);
#341=ADVANCED_FACE('',(#302,#303),#322,.T.);
#342=ADVANCED_FACE('',(#304),#323,.F.);
#343=ADVANCED_FACE('',(#305),#324,.T.);
#344=ADVANCED_FACE('',(#306),#325,.T.);
#345=ADVANCED_FACE('',(#307),#326,.F.);
#346=ADVANCED_FACE('',(#308),#327,.T.);
#347=ADVANCED_FACE('',(#309),#328,.T.);
#348=ADVANCED_FACE('',(#310),#329,.T.);
#349=ADVANCED_FACE('',(#311),#330,.F.);
#350=CLOSED_SHELL('',(#331,#332,#333,#334,#335,#336,#337,#338,#339,#340,
#341,#342,#343,#344,#345,#346,#347,#348,#349));
#351=STYLED_ITEM('',(#352),#359);
#352=PRESENTATION_STYLE_ASSIGNMENT((#353));
#353=SURFACE_STYLE_USAGE(.BOTH.,#354);
#354=SURFACE_SIDE_STYLE('',(#355));
#355=SURFACE_STYLE_FILL_AREA(#356);
#356=FILL_AREA_STYLE('',(#357));
#357=FILL_AREA_STYLE_COLOUR('',#358);
#358=COLOUR_RGB('',0.615686274509804,0.811764705882353,0.929411764705882);
#359=MANIFOLD_SOLID_BREP('Part 1',#350);
#360=SHAPE_DEFINITION_REPRESENTATION(#570,#361);
#361=SHAPE_REPRESENTATION('Part 1',(#362),#565);
#362=AXIS2_PLACEMENT_3D('',#468,#382,#383);
#363=AXIS2_PLACEMENT_3D('',#469,#384,#385);
#364=AXIS2_PLACEMENT_3D('',#478,#390,#391);
#365=AXIS2_PLACEMENT_3D('',#486,#396,#397);
#366=AXIS2_PLACEMENT_3D('',#495,#402,#403);
#367=AXIS2_PLACEMENT_3D('',#501,#407,#408);
#368=AXIS2_PLACEMENT_3D('',#507,#412,#413);
#369=AXIS2_PLACEMENT_3D('',#516,#418,#419);
#370=AXIS2_PLACEMENT_3D('',#521,#423,#424);
#371=AXIS2_PLACEMENT_3D('',#527,#428,#429);
#372=AXIS2_PLACEMENT_3D('',#530,#432,#433);
#373=AXIS2_PLACEMENT_3D('',#533,#436,#437);
#374=AXIS2_PLACEMENT_3D('',#539,#441,#442);
#375=AXIS2_PLACEMENT_3D('',#540,#443,#444);
#376=AXIS2_PLACEMENT_3D('',#541,#445,#446);
#377=AXIS2_PLACEMENT_3D('',#549,#451,#452);
#378=AXIS2_PLACEMENT_3D('',#557,#457,#458);
#379=AXIS2_PLACEMENT_3D('',#559,#460,#461);
#380=AXIS2_PLACEMENT_3D('',#562,#464,#465);
#381=AXIS2_PLACEMENT_3D('',#563,#466,#467);
#382=DIRECTION('',(0.,0.,1.));
#383=DIRECTION('',(1.,0.,0.));
#384=DIRECTION('',(1.,0.,0.));
#385=DIRECTION('',(0.,0.,-1.));
#386=DIRECTION('',(0.,1.,0.));
#387=DIRECTION('',(0.,0.,1.));
#388=DIRECTION('',(-7.61260987812093E-16,1.,0.));
#389=DIRECTION('',(0.,0.,1.));
#390=DIRECTION('',(-1.,-7.61260987812093E-16,0.));
#391=DIRECTION('',(7.61260987812093E-16,-1.,0.));
#392=DIRECTION('',(0.,0.,1.));
#393=DIRECTION('',(-7.61260987812093E-16,1.,0.));
#394=DIRECTION('',(0.,0.,-1.));
#395=DIRECTION('',(-7.61260987812093E-16,1.,0.));
#396=DIRECTION('',(1.,6.24643226946381E-17,0.));
#397=DIRECTION('',(-6.24643226946381E-17,1.,0.));
#398=DIRECTION('',(6.24643226946381E-17,-1.,0.));
#399=DIRECTION('',(0.,0.,-1.));
#400=DIRECTION('',(6.24643226946381E-17,-1.,0.));
#401=DIRECTION('',(0.,0.,-1.));
#402=DIRECTION('',(0.,1.,0.));
#403=DIRECTION('',(0.,0.,1.));
#404=DIRECTION('',(1.,0.,0.));
#405=DIRECTION('',(0.,0.,-1.));
#406=DIRECTION('',(1.,0.,0.));
#407=DIRECTION('',(1.,0.,0.));
#408=DIRECTION('',(0.,0.,-1.));
#409=DIRECTION('',(0.,-1.,0.));
#410=DIRECTION('',(0.,0.,-1.));
#411=DIRECTION('',(0.,-1.,0.));
#412=DIRECTION('',(0.,1.,0.));
#413=DIRECTION('',(0.,0.,1.));
#414=DIRECTION('',(1.,0.,0.));
#415=DIRECTION('',(0.,0.,-1.));
#416=DIRECTION('',(1.,0.,0.));
#417=DIRECTION('',(0.,0.,-1.));
#418=DIRECTION('',(-1.,-7.61260987812093E-16,0.));
#419=DIRECTION('',(7.61260987812093E-16,-1.,0.));
#420=DIRECTION('',(-7.61260987812093E-16,1.,0.));
#421=DIRECTION('',(0.,0.,1.));
#422=DIRECTION('',(-7.61260987812093E-16,1.,0.));
#423=DIRECTION('',(0.,1.,0.));
#424=DIRECTION('',(0.,0.,1.));
#425=DIRECTION('',(1.,0.,0.));
#426=DIRECTION('',(0.,0.,-1.));
#427=DIRECTION('',(1.,0.,0.));
#428=DIRECTION('',(-1.,0.,0.));
#429=DIRECTION('',(0.,0.,1.));
#430=DIRECTION('',(0.,1.,0.));
#431=DIRECTION('',(0.,1.,0.));
#432=DIRECTION('',(0.,1.,0.));
#433=DIRECTION('',(0.,0.,1.));
#434=DIRECTION('',(1.,0.,0.));
#435=DIRECTION('',(1.,0.,0.));
#436=DIRECTION('',(0.,0.,1.));
#437=DIRECTION('',(1.,0.,0.));
#438=DIRECTION('',(-1.,-7.61260987812093E-16,0.));
#439=DIRECTION('',(-7.61260987812093E-16,1.,0.));
#440=DIRECTION('',(-1.,-7.61260987812093E-16,0.));
#441=DIRECTION('',(0.,0.,1.));
#442=DIRECTION('',(1.,0.,0.));
#443=DIRECTION('',(0.,0.,1.));
#444=DIRECTION('',(1.,0.,0.));
#445=DIRECTION('',(7.61260987812093E-16,-1.,0.));
#446=DIRECTION('',(1.,7.61260987812093E-16,0.));
#447=DIRECTION('',(1.,0.,0.));
#448=DIRECTION('',(0.,0.,1.));
#449=DIRECTION('',(1.,0.,0.));
#450=DIRECTION('',(0.,0.,1.));
#451=DIRECTION('',(7.61260987812093E-16,-1.,0.));
#452=DIRECTION('',(1.,7.61260987812093E-16,0.));
#453=DIRECTION('',(1.,0.,0.));
#454=DIRECTION('',(0.,0.,1.));
#455=DIRECTION('',(1.,0.,0.));
#456=DIRECTION('',(0.,0.,1.));
#457=DIRECTION('',(1.,0.,0.));
#458=DIRECTION('',(0.,0.,-1.));
#459=DIRECTION('',(0.,1.,0.));
#460=DIRECTION('',(-1.,0.,0.));
#461=DIRECTION('',(0.,0.,1.));
#462=DIRECTION('',(0.,-1.,0.));
#463=DIRECTION('',(0.,-1.,0.));
#464=DIRECTION('',(0.,0.,1.));
#465=DIRECTION('',(1.,0.,0.));
#466=DIRECTION('',(0.,0.,1.));
#467=DIRECTION('',(1.,0.,0.));
#468=CARTESIAN_POINT('',(0.,0.,0.));
#469=CARTESIAN_POINT('',(0.0775,0.02702,-0.00165));
#470=CARTESIAN_POINT('',(0.0775,0.02702,-0.0016));
#471=CARTESIAN_POINT('',(0.0775,0.01727,-0.0016));
#472=CARTESIAN_POINT('',(0.0775,0.03677,-0.0016));
#473=CARTESIAN_POINT('',(0.0775,0.01727,-0.00165));
#474=CARTESIAN_POINT('',(0.0775,0.01727,0.));
#475=CARTESIAN_POINT('',(0.0775,0.045885,0.));
#476=CARTESIAN_POINT('',(0.0775,0.03677,0.));
#477=CARTESIAN_POINT('',(0.0775,0.03677,-0.00165));
#478=CARTESIAN_POINT('',(0.0775,0.045885,0.0025));
#479=CARTESIAN_POINT('',(0.0775,0.03677,-0.00165));
#480=CARTESIAN_POINT('',(0.0775,0.03677,0.0025));
#481=CARTESIAN_POINT('',(0.0775,0.045885,0.));
#482=CARTESIAN_POINT('',(0.0775,0.055,0.));
#483=CARTESIAN_POINT('',(0.0775,0.055,0.0025));
#484=CARTESIAN_POINT('',(0.0775,0.055,0.0025));
#485=CARTESIAN_POINT('',(0.0775,0.045885,0.0025));
#486=CARTESIAN_POINT('',(0.0035,0.02752,0.0025));
#487=CARTESIAN_POINT('',(0.0035,0.02752,0.002));
#488=CARTESIAN_POINT('',(0.0035,0.05182,0.002));
#489=CARTESIAN_POINT('',(0.0035,0.00322,0.002));
#490=CARTESIAN_POINT('',(0.0035,0.05182,0.0025));
#491=CARTESIAN_POINT('',(0.0035,0.05182,0.0025));
#492=CARTESIAN_POINT('',(0.0035,0.02752,0.0025));
#493=CARTESIAN_POINT('',(0.0035,0.00322,0.0025));
#494=CARTESIAN_POINT('',(0.0035,0.00322,0.0025));
#495=CARTESIAN_POINT('',(0.0359,0.05182,0.0025));
#496=CARTESIAN_POINT('',(0.0359,0.05182,0.002));
#497=CARTESIAN_POINT('',(0.0683,0.05182,0.002));
#498=CARTESIAN_POINT('',(0.0683,0.05182,0.0025));
#499=CARTESIAN_POINT('',(0.0683,0.05182,0.0025));
#500=CARTESIAN_POINT('',(0.0359,0.05182,0.0025));
#501=CARTESIAN_POINT('',(0.0683,0.044295,0.0025));
#502=CARTESIAN_POINT('',(0.0683,0.010245,0.002));
#503=CARTESIAN_POINT('',(0.0683,0.00322,0.002));
#504=CARTESIAN_POINT('',(0.0683,0.00322,0.0025));
#505=CARTESIAN_POINT('',(0.0683,0.00322,0.0025));
#506=CARTESIAN_POINT('',(0.0683,0.044295,0.0025));
#507=CARTESIAN_POINT('',(0.03875,0.,0.0025));
#508=CARTESIAN_POINT('',(0.03875,0.,0.));
#509=CARTESIAN_POINT('',(0.,0.,0.));
#510=CARTESIAN_POINT('',(0.0775,0.,0.));
#511=CARTESIAN_POINT('',(0.0775,0.,0.0025));
#512=CARTESIAN_POINT('',(0.0775,0.,0.0025));
#513=CARTESIAN_POINT('',(0.03875,0.,0.0025));
#514=CARTESIAN_POINT('',(0.,0.,0.0025));
#515=CARTESIAN_POINT('',(0.,0.,0.0025));
#516=CARTESIAN_POINT('',(0.0775,0.045885,0.0025));
#517=CARTESIAN_POINT('',(0.0775,0.045885,0.));
#518=CARTESIAN_POINT('',(0.0775,0.01727,-0.00165));
#519=CARTESIAN_POINT('',(0.0775,0.01727,0.0025));
#520=CARTESIAN_POINT('',(0.0775,0.045885,0.0025));
#521=CARTESIAN_POINT('',(0.03875,0.055,0.0025));
#522=CARTESIAN_POINT('',(0.03875,0.055,0.));
#523=CARTESIAN_POINT('',(0.,0.055,0.));
#524=CARTESIAN_POINT('',(0.,0.055,0.0025));
#525=CARTESIAN_POINT('',(0.,0.055,0.0025));
#526=CARTESIAN_POINT('',(0.03875,0.055,0.0025));
#527=CARTESIAN_POINT('',(0.,0.0275,0.0025));
#528=CARTESIAN_POINT('',(0.,0.0275,0.));
#529=CARTESIAN_POINT('',(0.,0.0275,0.0025));
#530=CARTESIAN_POINT('',(0.0359,0.00322,0.0025));
#531=CARTESIAN_POINT('',(0.0359,0.00322,0.002));
#532=CARTESIAN_POINT('',(0.0359,0.00322,0.0025));
#533=CARTESIAN_POINT('',(0.03875,0.0275,0.0025));
#534=CARTESIAN_POINT('',(0.0778,0.01727,0.0025));
#535=CARTESIAN_POINT('',(0.0778,0.01727,0.0025));
#536=CARTESIAN_POINT('',(0.0778,0.045885,0.0025));
#537=CARTESIAN_POINT('',(0.0778,0.03677,0.0025));
#538=CARTESIAN_POINT('',(0.0778,0.03677,0.0025));
#539=CARTESIAN_POINT('',(0.03875,0.0275,0.));
#540=CARTESIAN_POINT('',(0.03875,0.0275,0.002));
#541=CARTESIAN_POINT('',(0.0778,0.01727,-0.00165));
#542=CARTESIAN_POINT('',(0.0729,0.01727,-0.0016));
#543=CARTESIAN_POINT('',(0.036,0.01727,-0.0016));
#544=CARTESIAN_POINT('',(0.036,0.01727,-0.00165));
#545=CARTESIAN_POINT('',(0.036,0.01727,-0.00195));
#546=CARTESIAN_POINT('',(0.0729,0.01727,-0.00195));
#547=CARTESIAN_POINT('',(0.0778,0.01727,-0.00195));
#548=CARTESIAN_POINT('',(0.0778,0.01727,-0.00165));
#549=CARTESIAN_POINT('',(0.0778,0.03677,-0.00165));
#550=CARTESIAN_POINT('',(0.0729,0.03677,-0.0016));
#551=CARTESIAN_POINT('',(0.036,0.03677,-0.0016));
#552=CARTESIAN_POINT('',(0.0778,0.03677,-0.00165));
#553=CARTESIAN_POINT('',(0.0778,0.03677,-0.00195));
#554=CARTESIAN_POINT('',(0.0729,0.03677,-0.00195));
#555=CARTESIAN_POINT('',(0.036,0.03677,-0.00195));
#556=CARTESIAN_POINT('',(0.036,0.03677,-0.00165));
#557=CARTESIAN_POINT('',(0.0778,0.02702,-0.00165));
#558=CARTESIAN_POINT('',(0.0778,0.02702,-0.00195));
#559=CARTESIAN_POINT('',(0.036,0.02702,-0.00165));
#560=CARTESIAN_POINT('',(0.036,0.02702,-0.0016));
#561=CARTESIAN_POINT('',(0.036,0.02702,-0.00195));
#562=CARTESIAN_POINT('',(0.03875,0.0275,-0.0016));
#563=CARTESIAN_POINT('',(0.03875,0.0275,-0.00195));
#564=MECHANICAL_DESIGN_GEOMETRIC_PRESENTATION_REPRESENTATION('',(#351),
#565);
#565=(
GEOMETRIC_REPRESENTATION_CONTEXT(3)
GLOBAL_UNCERTAINTY_ASSIGNED_CONTEXT((#566))
GLOBAL_UNIT_ASSIGNED_CONTEXT((#569,#568,#567))
REPRESENTATION_CONTEXT('Part 1','TOP_LEVEL_ASSEMBLY_PART')
);
#566=UNCERTAINTY_MEASURE_WITH_UNIT(LENGTH_MEASURE(1.E-8),#569,
'DISTANCE_ACCURACY_VALUE','Maximum Tolerance applied to model');
#567=(
NAMED_UNIT(*)
SI_UNIT($,.STERADIAN.)
SOLID_ANGLE_UNIT()
);
#568=(
NAMED_UNIT(*)
PLANE_ANGLE_UNIT()
SI_UNIT($,.RADIAN.)
);
#569=(
LENGTH_UNIT()
NAMED_UNIT(*)
SI_UNIT($,.METRE.)
);
#570=PRODUCT_DEFINITION_SHAPE('','',#571);
#571=PRODUCT_DEFINITION('','',#573,#572);
#572=PRODUCT_DEFINITION_CONTEXT('',#579,'design');
#573=PRODUCT_DEFINITION_FORMATION_WITH_SPECIFIED_SOURCE('','',#575,
 .NOT_KNOWN.);
#574=PRODUCT_RELATED_PRODUCT_CATEGORY('','',(#575));
#575=PRODUCT('Part 1','Part 1','Part 1',(#577));
#576=PRODUCT_CATEGORY('','');
#577=PRODUCT_CONTEXT('',#579,'mechanical');
#578=APPLICATION_PROTOCOL_DEFINITION('international standard',
'ap242_managed_model_based_3d_engineering',2020,#579);
#579=APPLICATION_CONTEXT('managed model based 3d engineering');
ENDSEC;
END-ISO-10303-21;
