ISO-10303-21;
HEADER;
/* Generated by software containing ST-Developer
 * from STEP Tools, Inc. (www.steptools.com) 
 */
/* OPTION: using custom renumber hook */

FILE_DESCRIPTION(
/* description */ ('STEP AP242 Edition 2',
'CAx-IF Rec.Pracs.---Representation and Presentation of Product Manufa
cturing Information (PMI)---4.0---2014-10-13',
'CAx-IF Rec.Pracs.---3D Tessellated Geometry---0.4---2014-09-14','2;1',
'CAx-IF Rec.Pracs.---User Defined Attributes---1.5---2016-08-15'),
/* implementation_level */ '2;1');

FILE_NAME(
/* name */ '6974aba43809c43a26d96f35',
/* time_stamp */ '2026-01-24T11:23:16Z',
/* author */ (''),
/* organization */ (''),
/* preprocessor_version */ 'ST-DEVELOPER v20',
/* originating_system */ 'ONSHAPE BY PTC INC, 1.209',
/* authorisation */ '  ');

FILE_SCHEMA (('AP242_MANAGED_MODEL_BASED_3D_ENGINEERING_MIM_LF { 1 0 10303 442 3 1 4 }'));
ENDSEC;

DATA;
#10=SHAPE_REPRESENTATION_RELATIONSHIP('','',#407,#11);
#11=ADVANCED_BREP_SHAPE_REPRESENTATION('',(#405),#643);
#12=CYLINDRICAL_SURFACE('',#432,0.001);
#13=CYLINDRICAL_SURFACE('',#433,0.001);
#14=CIRCLE('',#423,0.001);
#15=CIRCLE('',#424,0.001);
#16=CIRCLE('',#426,0.001);
#17=CIRCLE('',#427,0.001);
#18=OVER_RIDING_STYLED_ITEM('',(#393),#381,#391);
#19=DRAUGHTING_PRE_DEFINED_COLOUR('black');
#20=ORIENTED_EDGE('',*,*,#124,.F.);
#21=ORIENTED_EDGE('',*,*,#125,.T.);
#22=ORIENTED_EDGE('',*,*,#126,.T.);
#23=ORIENTED_EDGE('',*,*,#127,.T.);
#24=ORIENTED_EDGE('',*,*,#128,.F.);
#25=ORIENTED_EDGE('',*,*,#129,.T.);
#26=ORIENTED_EDGE('',*,*,#130,.F.);
#27=ORIENTED_EDGE('',*,*,#131,.F.);
#28=ORIENTED_EDGE('',*,*,#132,.F.);
#29=ORIENTED_EDGE('',*,*,#133,.F.);
#30=ORIENTED_EDGE('',*,*,#134,.T.);
#31=ORIENTED_EDGE('',*,*,#135,.T.);
#32=ORIENTED_EDGE('',*,*,#133,.T.);
#33=ORIENTED_EDGE('',*,*,#136,.T.);
#34=ORIENTED_EDGE('',*,*,#137,.F.);
#35=ORIENTED_EDGE('',*,*,#138,.F.);
#36=ORIENTED_EDGE('',*,*,#137,.T.);
#37=ORIENTED_EDGE('',*,*,#139,.T.);
#38=ORIENTED_EDGE('',*,*,#140,.F.);
#39=ORIENTED_EDGE('',*,*,#141,.F.);
#40=ORIENTED_EDGE('',*,*,#142,.T.);
#41=ORIENTED_EDGE('',*,*,#143,.F.);
#42=ORIENTED_EDGE('',*,*,#144,.F.);
#43=ORIENTED_EDGE('',*,*,#145,.T.);
#44=ORIENTED_EDGE('',*,*,#146,.T.);
#45=ORIENTED_EDGE('',*,*,#147,.T.);
#46=ORIENTED_EDGE('',*,*,#148,.F.);
#47=ORIENTED_EDGE('',*,*,#143,.T.);
#48=ORIENTED_EDGE('',*,*,#149,.F.);
#49=ORIENTED_EDGE('',*,*,#150,.F.);
#50=ORIENTED_EDGE('',*,*,#151,.T.);
#51=ORIENTED_EDGE('',*,*,#130,.T.);
#52=ORIENTED_EDGE('',*,*,#152,.F.);
#53=ORIENTED_EDGE('',*,*,#145,.F.);
#54=ORIENTED_EDGE('',*,*,#153,.T.);
#55=ORIENTED_EDGE('',*,*,#150,.T.);
#56=ORIENTED_EDGE('',*,*,#154,.F.);
#57=ORIENTED_EDGE('',*,*,#135,.F.);
#58=ORIENTED_EDGE('',*,*,#155,.T.);
#59=ORIENTED_EDGE('',*,*,#140,.T.);
#60=ORIENTED_EDGE('',*,*,#144,.T.);
#61=ORIENTED_EDGE('',*,*,#148,.T.);
#62=ORIENTED_EDGE('',*,*,#156,.F.);
#63=ORIENTED_EDGE('',*,*,#157,.T.);
#64=ORIENTED_EDGE('',*,*,#158,.T.);
#65=ORIENTED_EDGE('',*,*,#131,.T.);
#66=ORIENTED_EDGE('',*,*,#151,.F.);
#67=ORIENTED_EDGE('',*,*,#153,.F.);
#68=ORIENTED_EDGE('',*,*,#134,.F.);
#69=ORIENTED_EDGE('',*,*,#138,.T.);
#70=ORIENTED_EDGE('',*,*,#141,.T.);
#71=ORIENTED_EDGE('',*,*,#155,.F.);
#72=ORIENTED_EDGE('',*,*,#142,.F.);
#73=ORIENTED_EDGE('',*,*,#152,.T.);
#74=ORIENTED_EDGE('',*,*,#149,.T.);
#75=ORIENTED_EDGE('',*,*,#129,.F.);
#76=ORIENTED_EDGE('',*,*,#127,.F.);
#77=ORIENTED_EDGE('',*,*,#146,.F.);
#78=ORIENTED_EDGE('',*,*,#139,.F.);
#79=ORIENTED_EDGE('',*,*,#136,.F.);
#80=ORIENTED_EDGE('',*,*,#132,.T.);
#81=ORIENTED_EDGE('',*,*,#154,.T.);
#82=ORIENTED_EDGE('',*,*,#159,.T.);
#83=ORIENTED_EDGE('',*,*,#160,.T.);
#84=ORIENTED_EDGE('',*,*,#161,.T.);
#85=ORIENTED_EDGE('',*,*,#156,.T.);
#86=ORIENTED_EDGE('',*,*,#147,.F.);
#87=ORIENTED_EDGE('',*,*,#126,.F.);
#88=ORIENTED_EDGE('',*,*,#162,.T.);
#89=ORIENTED_EDGE('',*,*,#163,.F.);
#90=ORIENTED_EDGE('',*,*,#164,.F.);
#91=ORIENTED_EDGE('',*,*,#165,.F.);
#92=ORIENTED_EDGE('',*,*,#166,.T.);
#93=ORIENTED_EDGE('',*,*,#167,.F.);
#94=ORIENTED_EDGE('',*,*,#168,.T.);
#95=ORIENTED_EDGE('',*,*,#169,.T.);
#96=ORIENTED_EDGE('',*,*,#170,.T.);
#97=ORIENTED_EDGE('',*,*,#124,.T.);
#98=ORIENTED_EDGE('',*,*,#128,.T.);
#99=ORIENTED_EDGE('',*,*,#158,.F.);
#100=ORIENTED_EDGE('',*,*,#161,.F.);
#101=ORIENTED_EDGE('',*,*,#171,.T.);
#102=ORIENTED_EDGE('',*,*,#165,.T.);
#103=ORIENTED_EDGE('',*,*,#157,.F.);
#104=ORIENTED_EDGE('',*,*,#172,.F.);
#105=ORIENTED_EDGE('',*,*,#168,.F.);
#106=ORIENTED_EDGE('',*,*,#173,.T.);
#107=ORIENTED_EDGE('',*,*,#164,.T.);
#108=ORIENTED_EDGE('',*,*,#163,.T.);
#109=ORIENTED_EDGE('',*,*,#174,.T.);
#110=ORIENTED_EDGE('',*,*,#169,.F.);
#111=ORIENTED_EDGE('',*,*,#172,.T.);
#112=ORIENTED_EDGE('',*,*,#167,.T.);
#113=ORIENTED_EDGE('',*,*,#175,.T.);
#114=ORIENTED_EDGE('',*,*,#159,.F.);
#115=ORIENTED_EDGE('',*,*,#173,.F.);
#116=ORIENTED_EDGE('',*,*,#160,.F.);
#117=ORIENTED_EDGE('',*,*,#175,.F.);
#118=ORIENTED_EDGE('',*,*,#166,.F.);
#119=ORIENTED_EDGE('',*,*,#171,.F.);
#120=ORIENTED_EDGE('',*,*,#162,.F.);
#121=ORIENTED_EDGE('',*,*,#125,.F.);
#122=ORIENTED_EDGE('',*,*,#170,.F.);
#123=ORIENTED_EDGE('',*,*,#174,.F.);
#124=EDGE_CURVE('',#176,#177,#210,.T.);
#125=EDGE_CURVE('',#176,#178,#211,.F.);
#126=EDGE_CURVE('',#178,#179,#212,.T.);
#127=EDGE_CURVE('',#179,#177,#213,.T.);
#128=EDGE_CURVE('',#177,#180,#214,.T.);
#129=EDGE_CURVE('',#177,#181,#215,.T.);
#130=EDGE_CURVE('',#182,#181,#216,.T.);
#131=EDGE_CURVE('',#180,#182,#217,.T.);
#132=EDGE_CURVE('',#183,#184,#218,.T.);
#133=EDGE_CURVE('',#185,#183,#219,.T.);
#134=EDGE_CURVE('',#185,#186,#220,.T.);
#135=EDGE_CURVE('',#186,#184,#221,.T.);
#136=EDGE_CURVE('',#183,#187,#222,.T.);
#137=EDGE_CURVE('',#188,#187,#223,.T.);
#138=EDGE_CURVE('',#185,#188,#224,.T.);
#139=EDGE_CURVE('',#187,#189,#225,.T.);
#140=EDGE_CURVE('',#190,#189,#226,.T.);
#141=EDGE_CURVE('',#188,#190,#227,.T.);
#142=EDGE_CURVE('',#191,#192,#228,.T.);
#143=EDGE_CURVE('',#193,#192,#229,.T.);
#144=EDGE_CURVE('',#194,#193,#230,.T.);
#145=EDGE_CURVE('',#194,#191,#231,.T.);
#146=EDGE_CURVE('',#192,#179,#232,.T.);
#147=EDGE_CURVE('',#179,#195,#233,.T.);
#148=EDGE_CURVE('',#193,#195,#234,.T.);
#149=EDGE_CURVE('',#196,#181,#235,.T.);
#150=EDGE_CURVE('',#197,#196,#236,.T.);
#151=EDGE_CURVE('',#197,#182,#237,.T.);
#152=EDGE_CURVE('',#191,#196,#238,.T.);
#153=EDGE_CURVE('',#194,#197,#239,.T.);
#154=EDGE_CURVE('',#184,#189,#240,.T.);
#155=EDGE_CURVE('',#186,#190,#241,.T.);
#156=EDGE_CURVE('',#198,#195,#242,.T.);
#157=EDGE_CURVE('',#198,#199,#243,.T.);
#158=EDGE_CURVE('',#199,#180,#244,.T.);
#159=EDGE_CURVE('',#200,#201,#245,.T.);
#160=EDGE_CURVE('',#201,#202,#14,.T.);
#161=EDGE_CURVE('',#202,#198,#246,.T.);
#162=EDGE_CURVE('',#178,#203,#15,.F.);
#163=EDGE_CURVE('',#204,#203,#247,.T.);
#164=EDGE_CURVE('',#200,#204,#248,.T.);
#165=EDGE_CURVE('',#205,#199,#249,.T.);
#166=EDGE_CURVE('',#205,#206,#16,.F.);
#167=EDGE_CURVE('',#207,#206,#250,.T.);
#168=EDGE_CURVE('',#207,#208,#251,.T.);
#169=EDGE_CURVE('',#208,#209,#252,.T.);
#170=EDGE_CURVE('',#209,#176,#17,.T.);
#171=EDGE_CURVE('',#202,#205,#253,.T.);
#172=EDGE_CURVE('',#208,#204,#254,.T.);
#173=EDGE_CURVE('',#207,#200,#255,.T.);
#174=EDGE_CURVE('',#203,#209,#256,.T.);
#175=EDGE_CURVE('',#206,#201,#257,.F.);
#176=VERTEX_POINT('',#537);
#177=VERTEX_POINT('',#538);
#178=VERTEX_POINT('',#540);
#179=VERTEX_POINT('',#542);
#180=VERTEX_POINT('',#546);
#181=VERTEX_POINT('',#548);
#182=VERTEX_POINT('',#550);
#183=VERTEX_POINT('',#554);
#184=VERTEX_POINT('',#555);
#185=VERTEX_POINT('',#557);
#186=VERTEX_POINT('',#559);
#187=VERTEX_POINT('',#563);
#188=VERTEX_POINT('',#565);
#189=VERTEX_POINT('',#569);
#190=VERTEX_POINT('',#571);
#191=VERTEX_POINT('',#575);
#192=VERTEX_POINT('',#576);
#193=VERTEX_POINT('',#578);
#194=VERTEX_POINT('',#580);
#195=VERTEX_POINT('',#585);
#196=VERTEX_POINT('',#589);
#197=VERTEX_POINT('',#591);
#198=VERTEX_POINT('',#601);
#199=VERTEX_POINT('',#603);
#200=VERTEX_POINT('',#609);
#201=VERTEX_POINT('',#610);
#202=VERTEX_POINT('',#612);
#203=VERTEX_POINT('',#615);
#204=VERTEX_POINT('',#617);
#205=VERTEX_POINT('',#621);
#206=VERTEX_POINT('',#623);
#207=VERTEX_POINT('',#625);
#208=VERTEX_POINT('',#627);
#209=VERTEX_POINT('',#629);
#210=LINE('',#536,#258);
#211=LINE('',#539,#259);
#212=LINE('',#541,#260);
#213=LINE('',#543,#261);
#214=LINE('',#545,#262);
#215=LINE('',#547,#263);
#216=LINE('',#549,#264);
#217=LINE('',#551,#265);
#218=LINE('',#553,#266);
#219=LINE('',#556,#267);
#220=LINE('',#558,#268);
#221=LINE('',#560,#269);
#222=LINE('',#562,#270);
#223=LINE('',#564,#271);
#224=LINE('',#566,#272);
#225=LINE('',#568,#273);
#226=LINE('',#570,#274);
#227=LINE('',#572,#275);
#228=LINE('',#574,#276);
#229=LINE('',#577,#277);
#230=LINE('',#579,#278);
#231=LINE('',#581,#279);
#232=LINE('',#583,#280);
#233=LINE('',#584,#281);
#234=LINE('',#586,#282);
#235=LINE('',#588,#283);
#236=LINE('',#590,#284);
#237=LINE('',#592,#285);
#238=LINE('',#594,#286);
#239=LINE('',#595,#287);
#240=LINE('',#597,#288);
#241=LINE('',#598,#289);
#242=LINE('',#600,#290);
#243=LINE('',#602,#291);
#244=LINE('',#604,#292);
#245=LINE('',#608,#293);
#246=LINE('',#613,#294);
#247=LINE('',#616,#295);
#248=LINE('',#618,#296);
#249=LINE('',#620,#297);
#250=LINE('',#624,#298);
#251=LINE('',#626,#299);
#252=LINE('',#628,#300);
#253=LINE('',#632,#301);
#254=LINE('',#634,#302);
#255=LINE('',#635,#303);
#256=LINE('',#637,#304);
#257=LINE('',#639,#305);
#258=VECTOR('',#438,1.);
#259=VECTOR('',#439,1.);
#260=VECTOR('',#440,1.);
#261=VECTOR('',#441,1.);
#262=VECTOR('',#444,1.);
#263=VECTOR('',#445,1.);
#264=VECTOR('',#446,1.);
#265=VECTOR('',#447,1.);
#266=VECTOR('',#450,1.);
#267=VECTOR('',#451,1.);
#268=VECTOR('',#452,1.);
#269=VECTOR('',#453,1.);
#270=VECTOR('',#456,1.);
#271=VECTOR('',#457,1.);
#272=VECTOR('',#458,1.);
#273=VECTOR('',#461,1.);
#274=VECTOR('',#462,1.);
#275=VECTOR('',#463,1.);
#276=VECTOR('',#466,1.);
#277=VECTOR('',#467,1.);
#278=VECTOR('',#468,1.);
#279=VECTOR('',#469,1.);
#280=VECTOR('',#472,1.);
#281=VECTOR('',#473,1.);
#282=VECTOR('',#474,1.);
#283=VECTOR('',#477,1.);
#284=VECTOR('',#478,1.);
#285=VECTOR('',#479,1.);
#286=VECTOR('',#482,1.);
#287=VECTOR('',#483,1.);
#288=VECTOR('',#486,1.);
#289=VECTOR('',#487,1.);
#290=VECTOR('',#490,1.);
#291=VECTOR('',#491,1.);
#292=VECTOR('',#492,1.);
#293=VECTOR('',#499,1.);
#294=VECTOR('',#502,1.);
#295=VECTOR('',#505,1.);
#296=VECTOR('',#506,1.);
#297=VECTOR('',#509,1.);
#298=VECTOR('',#512,1.);
#299=VECTOR('',#513,1.);
#300=VECTOR('',#514,1.);
#301=VECTOR('',#519,1.);
#302=VECTOR('',#522,1.);
#303=VECTOR('',#523,1.);
#304=VECTOR('',#526,1.);
#305=VECTOR('',#529,1.);
#306=EDGE_LOOP('',(#20,#21,#22,#23));
#307=EDGE_LOOP('',(#24,#25,#26,#27));
#308=EDGE_LOOP('',(#28,#29,#30,#31));
#309=EDGE_LOOP('',(#32,#33,#34,#35));
#310=EDGE_LOOP('',(#36,#37,#38,#39));
#311=EDGE_LOOP('',(#40,#41,#42,#43));
#312=EDGE_LOOP('',(#44,#45,#46,#47));
#313=EDGE_LOOP('',(#48,#49,#50,#51));
#314=EDGE_LOOP('',(#52,#53,#54,#55));
#315=EDGE_LOOP('',(#56,#57,#58,#59));
#316=EDGE_LOOP('',(#60,#61,#62,#63,#64,#65,#66,#67));
#317=EDGE_LOOP('',(#68,#69,#70,#71));
#318=EDGE_LOOP('',(#72,#73,#74,#75,#76,#77));
#319=EDGE_LOOP('',(#78,#79,#80,#81));
#320=EDGE_LOOP('',(#82,#83,#84,#85,#86,#87,#88,#89,#90));
#321=EDGE_LOOP('',(#91,#92,#93,#94,#95,#96,#97,#98,#99));
#322=EDGE_LOOP('',(#100,#101,#102,#103));
#323=EDGE_LOOP('',(#104,#105,#106,#107));
#324=EDGE_LOOP('',(#108,#109,#110,#111));
#325=EDGE_LOOP('',(#112,#113,#114,#115));
#326=EDGE_LOOP('',(#116,#117,#118,#119));
#327=EDGE_LOOP('',(#120,#121,#122,#123));
#328=FACE_BOUND('',#306,.T.);
#329=FACE_BOUND('',#307,.T.);
#330=FACE_BOUND('',#308,.T.);
#331=FACE_BOUND('',#309,.T.);
#332=FACE_BOUND('',#310,.T.);
#333=FACE_BOUND('',#311,.T.);
#334=FACE_BOUND('',#312,.T.);
#335=FACE_BOUND('',#313,.T.);
#336=FACE_BOUND('',#314,.T.);
#337=FACE_BOUND('',#315,.T.);
#338=FACE_BOUND('',#316,.T.);
#339=FACE_BOUND('',#317,.T.);
#340=FACE_BOUND('',#318,.T.);
#341=FACE_BOUND('',#319,.T.);
#342=FACE_BOUND('',#320,.T.);
#343=FACE_BOUND('',#321,.T.);
#344=FACE_BOUND('',#322,.T.);
#345=FACE_BOUND('',#323,.T.);
#346=FACE_BOUND('',#324,.T.);
#347=FACE_BOUND('',#325,.T.);
#348=FACE_BOUND('',#326,.T.);
#349=FACE_BOUND('',#327,.T.);
#350=PLANE('',#409);
#351=PLANE('',#410);
#352=PLANE('',#411);
#353=PLANE('',#412);
#354=PLANE('',#413);
#355=PLANE('',#414);
#356=PLANE('',#415);
#357=PLANE('',#416);
#358=PLANE('',#417);
#359=PLANE('',#418);
#360=PLANE('',#419);
#361=PLANE('',#420);
#362=PLANE('',#421);
#363=PLANE('',#422);
#364=PLANE('',#425);
#365=PLANE('',#428);
#366=PLANE('',#429);
#367=PLANE('',#430);
#368=PLANE('',#431);
#369=ADVANCED_FACE('',(#328),#350,.F.);
#370=ADVANCED_FACE('',(#329),#351,.F.);
#371=ADVANCED_FACE('',(#330),#352,.T.);
#372=ADVANCED_FACE('',(#331),#353,.F.);
#373=ADVANCED_FACE('',(#332),#354,.F.);
#374=ADVANCED_FACE('',(#333),#355,.F.);
#375=ADVANCED_FACE('',(#334),#356,.F.);
#376=ADVANCED_FACE('',(#335),#357,.T.);
#377=ADVANCED_FACE('',(#336),#358,.T.);
#378=ADVANCED_FACE('',(#337),#359,.T.);
#379=ADVANCED_FACE('',(#338,#339),#360,.T.);
#380=ADVANCED_FACE('',(#340),#361,.F.);
#381=ADVANCED_FACE('Face appearance 1',(#341),#362,.T.);
#382=ADVANCED_FACE('',(#342),#363,.T.);
#383=ADVANCED_FACE('',(#343),#364,.F.);
#384=ADVANCED_FACE('',(#344),#365,.T.);
#385=ADVANCED_FACE('',(#345),#366,.T.);
#386=ADVANCED_FACE('',(#346),#367,.T.);
#387=ADVANCED_FACE('',(#347),#368,.F.);
#388=ADVANCED_FACE('',(#348),#12,.T.);
#389=ADVANCED_FACE('',(#349),#13,.F.);
#390=CLOSED_SHELL('',(#369,#370,#371,#372,#373,#374,#375,#376,#377,#378,
#379,#380,#381,#382,#383,#384,#385,#386,#387,#388,#389));
#391=STYLED_ITEM('',(#392),#405);
#392=PRESENTATION_STYLE_ASSIGNMENT((#394));
#393=PRESENTATION_STYLE_ASSIGNMENT((#395));
#394=SURFACE_STYLE_USAGE(.BOTH.,#396);
#395=SURFACE_STYLE_USAGE(.BOTH.,#397);
#396=SURFACE_SIDE_STYLE('',(#398));
#397=SURFACE_SIDE_STYLE('',(#399));
#398=SURFACE_STYLE_FILL_AREA(#400);
#399=SURFACE_STYLE_FILL_AREA(#401);
#400=FILL_AREA_STYLE('',(#402));
#401=FILL_AREA_STYLE('',(#403));
#402=FILL_AREA_STYLE_COLOUR('',#404);
#403=FILL_AREA_STYLE_COLOUR('',#19);
#404=COLOUR_RGB('',0.647058823529412,0.647058823529412,0.647058823529412);
#405=MANIFOLD_SOLID_BREP('Part 1',#390);
#406=SHAPE_DEFINITION_REPRESENTATION(#648,#407);
#407=SHAPE_REPRESENTATION('Part 1',(#408),#643);
#408=AXIS2_PLACEMENT_3D('',#534,#434,#435);
#409=AXIS2_PLACEMENT_3D('',#535,#436,#437);
#410=AXIS2_PLACEMENT_3D('',#544,#442,#443);
#411=AXIS2_PLACEMENT_3D('',#552,#448,#449);
#412=AXIS2_PLACEMENT_3D('',#561,#454,#455);
#413=AXIS2_PLACEMENT_3D('',#567,#459,#460);
#414=AXIS2_PLACEMENT_3D('',#573,#464,#465);
#415=AXIS2_PLACEMENT_3D('',#582,#470,#471);
#416=AXIS2_PLACEMENT_3D('',#587,#475,#476);
#417=AXIS2_PLACEMENT_3D('',#593,#480,#481);
#418=AXIS2_PLACEMENT_3D('',#596,#484,#485);
#419=AXIS2_PLACEMENT_3D('',#599,#488,#489);
#420=AXIS2_PLACEMENT_3D('',#605,#493,#494);
#421=AXIS2_PLACEMENT_3D('',#606,#495,#496);
#422=AXIS2_PLACEMENT_3D('',#607,#497,#498);
#423=AXIS2_PLACEMENT_3D('',#611,#500,#501);
#424=AXIS2_PLACEMENT_3D('',#614,#503,#504);
#425=AXIS2_PLACEMENT_3D('',#619,#507,#508);
#426=AXIS2_PLACEMENT_3D('',#622,#510,#511);
#427=AXIS2_PLACEMENT_3D('',#630,#515,#516);
#428=AXIS2_PLACEMENT_3D('',#631,#517,#518);
#429=AXIS2_PLACEMENT_3D('',#633,#520,#521);
#430=AXIS2_PLACEMENT_3D('',#636,#524,#525);
#431=AXIS2_PLACEMENT_3D('',#638,#527,#528);
#432=AXIS2_PLACEMENT_3D('',#640,#530,#531);
#433=AXIS2_PLACEMENT_3D('',#641,#532,#533);
#434=DIRECTION('',(0.,0.,1.));
#435=DIRECTION('',(1.,0.,0.));
#436=DIRECTION('',(1.,0.,0.));
#437=DIRECTION('',(0.,0.,-1.));
#438=DIRECTION('',(0.,0.,1.));
#439=DIRECTION('',(0.,1.,0.));
#440=DIRECTION('',(0.,0.,1.));
#441=DIRECTION('',(-7.61260987812093E-16,1.,0.));
#442=DIRECTION('',(-1.,-7.61260987812093E-16,0.));
#443=DIRECTION('',(7.61260987812093E-16,-1.,0.));
#444=DIRECTION('',(0.,0.,1.));
#445=DIRECTION('',(-7.61260987812093E-16,1.,0.));
#446=DIRECTION('',(0.,0.,-1.));
#447=DIRECTION('',(-7.61260987812093E-16,1.,0.));
#448=DIRECTION('',(1.,6.24643226946381E-17,0.));
#449=DIRECTION('',(-6.24643226946381E-17,1.,0.));
#450=DIRECTION('',(6.24643226946381E-17,-1.,0.));
#451=DIRECTION('',(0.,0.,-1.));
#452=DIRECTION('',(6.24643226946381E-17,-1.,0.));
#453=DIRECTION('',(0.,0.,-1.));
#454=DIRECTION('',(0.,1.,0.));
#455=DIRECTION('',(0.,0.,1.));
#456=DIRECTION('',(1.,0.,0.));
#457=DIRECTION('',(0.,0.,-1.));
#458=DIRECTION('',(1.,0.,0.));
#459=DIRECTION('',(1.,0.,0.));
#460=DIRECTION('',(0.,0.,-1.));
#461=DIRECTION('',(0.,-1.,0.));
#462=DIRECTION('',(0.,0.,-1.));
#463=DIRECTION('',(0.,-1.,0.));
#464=DIRECTION('',(0.,1.,0.));
#465=DIRECTION('',(0.,0.,1.));
#466=DIRECTION('',(1.,0.,0.));
#467=DIRECTION('',(0.,0.,-1.));
#468=DIRECTION('',(1.,0.,0.));
#469=DIRECTION('',(0.,0.,-1.));
#470=DIRECTION('',(-1.,-7.61260987812093E-16,0.));
#471=DIRECTION('',(7.61260987812093E-16,-1.,0.));
#472=DIRECTION('',(-7.61260987812093E-16,1.,0.));
#473=DIRECTION('',(0.,0.,1.));
#474=DIRECTION('',(-7.61260987812093E-16,1.,0.));
#475=DIRECTION('',(0.,1.,0.));
#476=DIRECTION('',(0.,0.,1.));
#477=DIRECTION('',(1.,0.,0.));
#478=DIRECTION('',(0.,0.,-1.));
#479=DIRECTION('',(1.,0.,0.));
#480=DIRECTION('',(-1.,0.,0.));
#481=DIRECTION('',(0.,0.,1.));
#482=DIRECTION('',(0.,1.,0.));
#483=DIRECTION('',(0.,1.,0.));
#484=DIRECTION('',(0.,1.,0.));
#485=DIRECTION('',(0.,0.,1.));
#486=DIRECTION('',(1.,0.,0.));
#487=DIRECTION('',(1.,0.,0.));
#488=DIRECTION('',(0.,0.,1.));
#489=DIRECTION('',(1.,0.,0.));
#490=DIRECTION('',(-1.,-7.61260987812093E-16,0.));
#491=DIRECTION('',(-7.61260987812093E-16,1.,0.));
#492=DIRECTION('',(-1.,-7.61260987812093E-16,0.));
#493=DIRECTION('',(0.,0.,1.));
#494=DIRECTION('',(1.,0.,0.));
#495=DIRECTION('',(0.,0.,1.));
#496=DIRECTION('',(1.,0.,0.));
#497=DIRECTION('',(7.61260987812093E-16,-1.,0.));
#498=DIRECTION('',(1.,7.61260987812093E-16,0.));
#499=DIRECTION('',(1.,0.,0.));
#500=DIRECTION('',(7.61260987812093E-16,-1.,0.));
#501=DIRECTION('',(1.,7.61260987812093E-16,0.));
#502=DIRECTION('',(0.,0.,1.));
#503=DIRECTION('',(7.61260987812093E-16,-1.,0.));
#504=DIRECTION('',(1.,7.61260987812093E-16,0.));
#505=DIRECTION('',(1.,0.,0.));
#506=DIRECTION('',(0.,0.,1.));
#507=DIRECTION('',(7.61260987812093E-16,-1.,0.));
#508=DIRECTION('',(1.,7.61260987812093E-16,0.));
#509=DIRECTION('',(0.,0.,1.));
#510=DIRECTION('',(7.61260987812093E-16,-1.,0.));
#511=DIRECTION('',(1.,7.61260987812093E-16,0.));
#512=DIRECTION('',(1.,0.,0.));
#513=DIRECTION('',(0.,0.,1.));
#514=DIRECTION('',(1.,0.,0.));
#515=DIRECTION('',(7.61260987812093E-16,-1.,0.));
#516=DIRECTION('',(1.,7.61260987812093E-16,0.));
#517=DIRECTION('',(1.,0.,0.));
#518=DIRECTION('',(0.,0.,-1.));
#519=DIRECTION('',(0.,1.,0.));
#520=DIRECTION('',(-1.,0.,0.));
#521=DIRECTION('',(0.,0.,1.));
#522=DIRECTION('',(0.,-1.,0.));
#523=DIRECTION('',(0.,-1.,0.));
#524=DIRECTION('',(0.,0.,1.));
#525=DIRECTION('',(1.,0.,0.));
#526=DIRECTION('',(0.,1.,0.));
#527=DIRECTION('',(0.,0.,1.));
#528=DIRECTION('',(1.,0.,0.));
#529=DIRECTION('',(0.,1.,0.));
#530=DIRECTION('',(0.,-1.,0.));
#531=DIRECTION('',(0.,0.,-1.));
#532=DIRECTION('',(0.,1.,0.));
#533=DIRECTION('',(0.,0.,1.));
#534=CARTESIAN_POINT('',(0.,0.,0.));
#535=CARTESIAN_POINT('',(0.0775,0.02702,-0.00165));
#536=CARTESIAN_POINT('',(0.0775,0.03677,-0.00165));
#537=CARTESIAN_POINT('',(0.0775,0.03677,-0.0006));
#538=CARTESIAN_POINT('',(0.0775,0.03677,0.));
#539=CARTESIAN_POINT('',(0.0775,0.02702,-0.0006));
#540=CARTESIAN_POINT('',(0.0775,0.01727,-0.0006));
#541=CARTESIAN_POINT('',(0.0775,0.01727,-0.00165));
#542=CARTESIAN_POINT('',(0.0775,0.01727,0.));
#543=CARTESIAN_POINT('',(0.0775,0.045885,0.));
#544=CARTESIAN_POINT('',(0.0775,0.045885,0.0025));
#545=CARTESIAN_POINT('',(0.0775,0.03677,-0.00165));
#546=CARTESIAN_POINT('',(0.0775,0.03677,0.0025));
#547=CARTESIAN_POINT('',(0.0775,0.045885,0.));
#548=CARTESIAN_POINT('',(0.0775,0.055,0.));
#549=CARTESIAN_POINT('',(0.0775,0.055,0.0025));
#550=CARTESIAN_POINT('',(0.0775,0.055,0.0025));
#551=CARTESIAN_POINT('',(0.0775,0.045885,0.0025));
#552=CARTESIAN_POINT('',(0.0035,0.02752,0.0025));
#553=CARTESIAN_POINT('',(0.0035,0.02752,0.002));
#554=CARTESIAN_POINT('',(0.0035,0.05182,0.002));
#555=CARTESIAN_POINT('',(0.0035,0.00322,0.002));
#556=CARTESIAN_POINT('',(0.0035,0.05182,0.0025));
#557=CARTESIAN_POINT('',(0.0035,0.05182,0.0025));
#558=CARTESIAN_POINT('',(0.0035,0.02752,0.0025));
#559=CARTESIAN_POINT('',(0.0035,0.00322,0.0025));
#560=CARTESIAN_POINT('',(0.0035,0.00322,0.0025));
#561=CARTESIAN_POINT('',(0.0359,0.05182,0.0025));
#562=CARTESIAN_POINT('',(0.0359,0.05182,0.002));
#563=CARTESIAN_POINT('',(0.0683,0.05182,0.002));
#564=CARTESIAN_POINT('',(0.0683,0.05182,0.0025));
#565=CARTESIAN_POINT('',(0.0683,0.05182,0.0025));
#566=CARTESIAN_POINT('',(0.0359,0.05182,0.0025));
#567=CARTESIAN_POINT('',(0.0683,0.044295,0.0025));
#568=CARTESIAN_POINT('',(0.0683,0.010245,0.002));
#569=CARTESIAN_POINT('',(0.0683,0.00322,0.002));
#570=CARTESIAN_POINT('',(0.0683,0.00322,0.0025));
#571=CARTESIAN_POINT('',(0.0683,0.00322,0.0025));
#572=CARTESIAN_POINT('',(0.0683,0.044295,0.0025));
#573=CARTESIAN_POINT('',(0.03875,0.,0.0025));
#574=CARTESIAN_POINT('',(0.03875,0.,0.));
#575=CARTESIAN_POINT('',(0.,0.,0.));
#576=CARTESIAN_POINT('',(0.0775,0.,0.));
#577=CARTESIAN_POINT('',(0.0775,0.,0.0025));
#578=CARTESIAN_POINT('',(0.0775,0.,0.0025));
#579=CARTESIAN_POINT('',(0.03875,0.,0.0025));
#580=CARTESIAN_POINT('',(0.,0.,0.0025));
#581=CARTESIAN_POINT('',(0.,0.,0.0025));
#582=CARTESIAN_POINT('',(0.0775,0.045885,0.0025));
#583=CARTESIAN_POINT('',(0.0775,0.045885,0.));
#584=CARTESIAN_POINT('',(0.0775,0.01727,-0.00165));
#585=CARTESIAN_POINT('',(0.0775,0.01727,0.0025));
#586=CARTESIAN_POINT('',(0.0775,0.045885,0.0025));
#587=CARTESIAN_POINT('',(0.03875,0.055,0.0025));
#588=CARTESIAN_POINT('',(0.03875,0.055,0.));
#589=CARTESIAN_POINT('',(0.,0.055,0.));
#590=CARTESIAN_POINT('',(0.,0.055,0.0025));
#591=CARTESIAN_POINT('',(0.,0.055,0.0025));
#592=CARTESIAN_POINT('',(0.03875,0.055,0.0025));
#593=CARTESIAN_POINT('',(0.,0.0275,0.0025));
#594=CARTESIAN_POINT('',(0.,0.0275,0.));
#595=CARTESIAN_POINT('',(0.,0.0275,0.0025));
#596=CARTESIAN_POINT('',(0.0359,0.00322,0.0025));
#597=CARTESIAN_POINT('',(0.0359,0.00322,0.002));
#598=CARTESIAN_POINT('',(0.0359,0.00322,0.0025));
#599=CARTESIAN_POINT('',(0.03875,0.0275,0.0025));
#600=CARTESIAN_POINT('',(0.0778,0.01727,0.0025));
#601=CARTESIAN_POINT('',(0.0778,0.01727,0.0025));
#602=CARTESIAN_POINT('',(0.0778,0.045885,0.0025));
#603=CARTESIAN_POINT('',(0.0778,0.03677,0.0025));
#604=CARTESIAN_POINT('',(0.0778,0.03677,0.0025));
#605=CARTESIAN_POINT('',(0.03875,0.0275,0.));
#606=CARTESIAN_POINT('',(0.03875,0.0275,0.002));
#607=CARTESIAN_POINT('',(0.0778,0.01727,-0.00165));
#608=CARTESIAN_POINT('',(0.0729,0.01727,-0.00195));
#609=CARTESIAN_POINT('',(0.036,0.01727,-0.00195));
#610=CARTESIAN_POINT('',(0.0768,0.01727,-0.00195));
#611=CARTESIAN_POINT('',(0.0768,0.01727,-0.00095));
#612=CARTESIAN_POINT('',(0.0778,0.01727,-0.00095));
#613=CARTESIAN_POINT('',(0.0778,0.01727,-0.00165));
#614=CARTESIAN_POINT('',(0.0765,0.01727,-0.0006));
#615=CARTESIAN_POINT('',(0.0765,0.01727,-0.0016));
#616=CARTESIAN_POINT('',(0.0729,0.01727,-0.0016));
#617=CARTESIAN_POINT('',(0.036,0.01727,-0.0016));
#618=CARTESIAN_POINT('',(0.036,0.01727,-0.00165));
#619=CARTESIAN_POINT('',(0.0778,0.03677,-0.00165));
#620=CARTESIAN_POINT('',(0.0778,0.03677,-0.00165));
#621=CARTESIAN_POINT('',(0.0778,0.03677,-0.00095));
#622=CARTESIAN_POINT('',(0.0768,0.03677,-0.00095));
#623=CARTESIAN_POINT('',(0.0768,0.03677,-0.00195));
#624=CARTESIAN_POINT('',(0.0729,0.03677,-0.00195));
#625=CARTESIAN_POINT('',(0.036,0.03677,-0.00195));
#626=CARTESIAN_POINT('',(0.036,0.03677,-0.00165));
#627=CARTESIAN_POINT('',(0.036,0.03677,-0.0016));
#628=CARTESIAN_POINT('',(0.0729,0.03677,-0.0016));
#629=CARTESIAN_POINT('',(0.0765,0.03677,-0.0016));
#630=CARTESIAN_POINT('',(0.0765,0.03677,-0.0006));
#631=CARTESIAN_POINT('',(0.0778,0.02702,-0.00165));
#632=CARTESIAN_POINT('',(0.0778,0.03677,-0.00095));
#633=CARTESIAN_POINT('',(0.036,0.02702,-0.00165));
#634=CARTESIAN_POINT('',(0.036,0.02702,-0.0016));
#635=CARTESIAN_POINT('',(0.036,0.02702,-0.00195));
#636=CARTESIAN_POINT('',(0.03875,0.0275,-0.0016));
#637=CARTESIAN_POINT('',(0.0765,0.0275,-0.0016));
#638=CARTESIAN_POINT('',(0.03875,0.0275,-0.00195));
#639=CARTESIAN_POINT('',(0.0768,0.01727,-0.00195));
#640=CARTESIAN_POINT('',(0.0768,0.02702,-0.00095));
#641=CARTESIAN_POINT('',(0.0765,0.0275,-0.0006));
#642=MECHANICAL_DESIGN_GEOMETRIC_PRESENTATION_REPRESENTATION('',(#391,#18),
#643);
#643=(
GEOMETRIC_REPRESENTATION_CONTEXT(3)
GLOBAL_UNCERTAINTY_ASSIGNED_CONTEXT((#644))
GLOBAL_UNIT_ASSIGNED_CONTEXT((#647,#646,#645))
REPRESENTATION_CONTEXT('Part 1','TOP_LEVEL_ASSEMBLY_PART')
);
#644=UNCERTAINTY_MEASURE_WITH_UNIT(LENGTH_MEASURE(1.E-8),#647,
'DISTANCE_ACCURACY_VALUE','Maximum Tolerance applied to model');
#645=(
NAMED_UNIT(*)
SI_UNIT($,.STERADIAN.)
SOLID_ANGLE_UNIT()
);
#646=(
NAMED_UNIT(*)
PLANE_ANGLE_UNIT()
SI_UNIT($,.RADIAN.)
);
#647=(
LENGTH_UNIT()
NAMED_UNIT(*)
SI_UNIT($,.METRE.)
);
#648=PRODUCT_DEFINITION_SHAPE('','',#649);
#649=PRODUCT_DEFINITION('','',#651,#650);
#650=PRODUCT_DEFINITION_CONTEXT('',#657,'design');
#651=PRODUCT_DEFINITION_FORMATION_WITH_SPECIFIED_SOURCE('','',#653,
 .NOT_KNOWN.);
#652=PRODUCT_RELATED_PRODUCT_CATEGORY('','',(#653));
#653=PRODUCT('Part 1','Part 1','Part 1',(#655));
#654=PRODUCT_CATEGORY('','');
#655=PRODUCT_CONTEXT('',#657,'mechanical');
#656=APPLICATION_PROTOCOL_DEFINITION('international standard',
'ap242_managed_model_based_3d_engineering',2020,#657);
#657=APPLICATION_CONTEXT('managed model based 3d engineering');
ENDSEC;
END-ISO-10303-21;
